<svg width="90" height="45" viewBox="0 0 90 45" fill="none" xmlns="http://www.w3.org/2000/svg">
<path d="M20.0804 12.6591C20.0586 12.9151 20.2671 12.8545 20.2715 12.8639C21.0316 14.479 28.3893 15.987 29.5185 17.6114C29.4577 17.6533 29.5098 18.0955 28.6499 18.0257C28.2112 17.9884 21.3747 15.5355 20.2715 15.1352C20.215 15.1166 20.1368 15.1585 20.0804 15.1352C17.5829 13.5806 14.1647 12.4403 11.3154 11.0067C9.56503 10.1224 0.539477 5.23517 0.239783 3.68058C0.196349 3.45251 0.483012 2.54023 0.626344 2.34009C3.44086 5.13743 13.5609 10.2667 17.2876 11.8352C19.1074 12.6032 19.9457 12.6079 20.0804 12.6591Z" fill="#69ABB9"/>
<path d="M75.1721 31.8542C74.9419 32.18 75.0027 32.4499 74.981 32.4732L55.236 27.1066C54.8668 27.6233 55.9222 27.7117 56.4869 27.9305C56.122 28.5309 55.4054 27.3161 55.5226 28.5495C54.1023 27.2462 52.6907 25.943 51.2835 24.6258C51.4008 24.7561 51.8742 24.421 51.8612 24.3139C51.8177 23.9741 51.1575 24.4861 51.2835 24.6258C50.8318 24.2022 50.3931 23.8299 49.937 23.3877C52.8297 20.6043 47.9043 20.0877 50.5147 21.4282L49.937 23.3877C49.5982 23.0619 47.4743 21.5306 47.4309 21.2187C47.3744 20.8045 48.1302 20.4321 47.622 19.6688C46.9358 18.6401 45.5285 20.1761 47.4309 19.8736C47.3875 20.1528 47.2919 20.9069 46.9488 20.9069C46.458 20.9069 40.4554 14.5814 39.8213 13.6831C48.0563 17.1972 56.5607 20.0597 65.0564 22.764C66.8545 23.3365 79.0898 25.3286 74.5901 28.6472C77.8433 29.9272 80.5362 32.678 83.2595 35.0472C82.3951 36.2573 69.7993 28.0841 70.642 27.721C78.1908 29.6759 71.0372 27.1159 70.4508 27.3068C69.0088 27.7815 74.5814 31.4725 75.1721 31.8495V31.8542Z" fill="#FFFEFF"/>
<path d="M74.9788 32.4733C74.64 32.7945 74.1362 32.7107 73.7279 32.6781C72.8419 32.6083 59.2601 28.4193 56.489 27.9305C55.9244 27.7118 54.8646 27.6187 55.2381 27.1067L74.9832 32.4733H74.9788Z" fill="#3E2524"/>
<path d="M49.9354 23.3926L50.5131 21.4331C47.9027 20.0972 52.8281 20.6139 49.9354 23.3926Z" fill="#3E2524"/>
<path d="M56.7771 25.2498C56.7771 26.674 57.2896 25.0263 57.4503 25.7664C56.5469 26.8974 56.46 25.8828 56.3905 25.8688C56.2559 25.8455 55.2091 26.7392 56.7771 25.2498Z" fill="#9B8985"/>
<path d="M63.8046 27.7257C63.8046 27.7955 63.8132 27.8653 63.8046 27.9305C63.405 30.6441 63.1617 26.4643 63.9001 26.6924C64 27.0322 63.8219 27.3533 63.8046 27.7257Z" fill="#705853"/>
<path d="M64.3863 28.1401H64.1952C64.1952 28.1401 63.8955 27.9632 63.8086 27.9353C63.8173 27.8701 63.8086 27.7957 63.8086 27.7305C64.7598 27.926 64.3428 26.7763 64.8684 26.2876C65.1507 27.0137 64.6903 27.5815 64.3863 28.1447V28.1401Z" fill="#B5ABA8"/>
<path d="M54.7536 25.6592C54.7188 25.6359 53.9935 25.7429 53.9848 25.3473C53.9587 24.4304 55.1184 24.2116 54.7536 25.6592Z" fill="#9B8985"/>
<path d="M61.5882 26.0732C61.8922 26.3711 61.4622 26.5666 61.2016 26.8971C60.1027 28.3167 59.8812 27.6558 61.5882 26.0732Z" fill="#9B8985"/>
<path d="M60.0508 25.8687L60.3418 25.9711C58.8173 27.8049 58.3699 27.5443 60.0508 25.8687Z" fill="#9B8985"/>
<path d="M59.4746 25.6594C59.77 25.9527 59.3877 26.1063 59.1836 26.3809C58.2715 27.6236 57.9675 27.0371 59.4746 25.6594Z" fill="#9B8985"/>
<path d="M47.6252 19.6736C47.4515 19.6503 47.4558 19.7294 47.4341 19.8784C45.5317 20.1763 46.939 18.6449 47.6252 19.6736Z" fill="#A2878B"/>
<path d="M60.6299 26.0732C60.934 26.3804 60.5213 26.5247 60.3389 26.7947C59.3573 28.2841 59.8003 26.7481 60.6299 26.0732Z" fill="#897A78"/>
<path d="M55.3309 25.6593C54.51 26.4133 54.8271 25.7012 54.7532 25.6593L55.6219 24.8354C55.9347 25.2032 55.3613 25.3567 55.3309 25.6593Z" fill="#9B8985"/>
<path d="M53.5022 24.2165C53.6238 24.1885 53.7585 24.1978 53.7932 24.3189C54.0625 25.2637 51.7822 24.5935 53.5022 24.2165Z" fill="#897A78"/>
<path d="M53.1155 23.8019C53.4673 23.9275 52.7724 24.6443 52.7289 24.6257C52.3771 24.5 53.0721 23.7833 53.1155 23.8019Z" fill="#9B8985"/>
<path d="M64.3873 28.1404C64.3265 28.2521 64.4916 28.6244 64.2918 28.7594C63.6707 28.7175 64.2179 28.3033 64.1962 28.1404H64.3873Z" fill="#705853"/>
<path d="M55.3313 25.6592C55.3313 25.6592 55.7309 25.5987 55.7178 25.7616C55.6614 26.3853 55.1923 26.4598 55.3313 25.6592Z" fill="#9B8985"/>
<path d="M51.2874 24.6306C51.1615 24.491 51.8217 23.9836 51.8651 24.3187C51.8781 24.4211 51.4047 24.7563 51.2874 24.6306Z" fill="#B5ABA8"/>
<path d="M49.6493 21.9448L49.9359 22.0472L49.6493 22.3591L49.5537 22.2567L49.6493 21.9448Z" fill="#3E2524"/>
<path d="M51.1907 23.3923L51.4774 23.4947L51.1907 23.8019L51.0908 23.6995L51.1907 23.3923Z" fill="#9B8985"/>
<path d="M51.9598 23.5972L52.2508 23.6996L51.9598 24.0114L51.8643 23.909L51.9598 23.5972Z" fill="#7A6965"/>
<path d="M57.5445 26.0732L57.64 26.3851L57.3534 26.4875L57.2578 26.3851L57.5445 26.0732Z" fill="#705853"/>
<path d="M56.1991 25.0403L56.4857 25.1473L56.1991 25.4545L56.1035 25.3521L56.1991 25.0403Z" fill="#705853"/>
<path d="M65.155 16.3734C63.6131 15.2796 61.815 14.8235 60.0516 14.3115L33.0835 10.183C37.922 13.4644 43.7552 14.7443 49.0715 16.9925L59.3783 16.7877C56.3336 17.0204 53.2759 17.2066 50.2268 17.4067C55.934 18.9194 63.8607 23.2388 69.4897 22.3591C76.7475 21.2234 84.0965 11.1697 85.4777 10.802C86.607 10.4948 90.2294 11.2628 89.4259 13.59C89.0958 14.5535 79.4013 27.7257 78.0592 30.1041L83.6448 35.2659C83.267 36.504 75.9657 32.3662 75.1709 31.8589C74.5802 31.4818 69.012 27.7908 70.4496 27.3161C71.0403 27.1206 78.1939 29.6852 70.6407 27.7303C69.7981 28.098 82.3939 36.2713 83.2583 35.0565C80.535 32.6874 77.8464 29.9366 74.5889 28.6566C79.0886 25.3379 66.8533 23.3458 65.0551 22.7733C56.5595 20.0691 48.0551 17.2066 39.8201 13.6924C40.4542 14.5908 46.4524 20.9162 46.9476 20.9162C47.2907 20.9162 47.3863 20.1622 47.4297 19.8829C47.4557 19.7339 47.4471 19.6548 47.6208 19.6781C48.129 20.4368 47.3689 20.8138 47.4297 21.228C47.4731 21.5399 49.597 23.0665 49.9358 23.397C50.3919 23.8438 50.8306 24.2116 51.2823 24.6351C52.6895 25.9477 54.1011 27.2556 55.5214 28.5588C59.2915 32.0171 63.0789 35.5964 66.9836 38.8778C67.9261 39.6691 71.7005 41.8194 71.7049 42.8015L68.43 44.8635C68.4039 44.8635 68.5603 45.1707 67.9478 44.8635L41.5574 23.1876C41.8441 27.7676 31.6502 26.0547 29.8086 24.6305C27.8714 23.1364 28.3926 20.5624 29.0398 18.44L20.2748 15.1353C21.3781 15.531 28.2145 17.9885 28.6532 18.0258C29.5089 18.1002 29.4568 17.6534 29.5219 17.6115C30.3081 17.0762 30.4601 16.8901 29.8129 16.5782C28.5229 15.9592 22.9113 14.4278 20.2792 12.8639C20.2748 12.85 20.0664 12.9105 20.0881 12.6591C20.1141 12.6685 20.1054 12.2728 20.5702 12.4543C23.4108 13.5668 26.1514 15.1167 29.0441 16.1686C30.5513 16.7178 33.4787 16.5736 36.5582 19.059L36.8492 18.8542C37.2879 19.2406 37.3965 19.4454 37.4269 19.4733C46.9997 27.735 57.3239 35.0146 66.8012 43.4159C67.5656 43.8767 67.7263 43.7836 67.861 43.8302C69.303 44.3003 69.8546 43.2623 71.327 42.4897C59.9517 33.6462 49.2756 23.6251 38.8689 13.4876C35.6895 12.594 33.0183 10.5088 30.0084 9.15432C21.5996 7.00396 11.6098 -1.3741 3.04029 0.692485C-0.0956327 1.44651 1.4593 2.4798 5.92864 5.23526C7.88751 6.44076 17.165 11.2069 19.0283 11.84C19.1065 11.8679 20.783 11.4071 19.2194 12.2542C18.4723 12.2449 7.81367 6.73865 6.3152 5.8543C2.6407 3.69462 1.24647 1.95385 0.920721 1.93057C0.816479 1.92127 0.686175 2.2657 0.629711 2.34482C0.490723 2.54962 0.199716 3.45724 0.24315 3.68531C0.547187 5.23991 9.5684 10.1318 11.3188 11.0115C14.168 12.445 17.5863 13.5854 20.0837 15.14C16.9131 13.9857 1.29859 6.96207 0.24315 4.30436C-1.4942 -0.0755027 6.57146 -0.16394 8.81265 0.0734388C11.8878 0.394598 27.1157 8.24205 31.9281 9.77337L60.8203 14.1067C62.6967 14.749 66.5102 16.0662 65.155 16.3781V16.3734Z" fill="#3E2524"/>
<path d="M68.4287 44.8586L71.7036 42.7966C71.7036 43.8346 69.5884 44.8446 68.4287 44.8586Z" fill="#FFFEFF"/>
<path d="M85.8585 11.0069C86.4666 10.8859 89.5374 11.8214 89.4201 12.9664C89.3115 14.0137 78.8266 27.5768 77.7668 29.9972C73.7752 28.1959 77.3933 27.7025 75.0696 25.6638C74.2313 24.9284 69.0236 23.2109 67.46 22.8758C75.7428 23.2156 84.4556 11.2815 85.8542 11.0069H85.8585Z" fill="#FFFEFF"/>
<path d="M31.6365 17.1975C32.1533 20.4882 31.2803 17.6583 31.1544 17.6117C30.2466 17.258 28.3095 23.6532 30.5767 22.9783C31.3759 22.7409 32.566 17.9608 32.023 16.9927C33.3608 17.1137 41.066 22.1731 41.2701 23.0807C42.1562 27.0696 31.6929 25.8408 29.8079 24.2164C26.9804 21.7775 30.4985 15.2333 31.6365 17.1975Z" fill="#FFFEFF"/>
<path d="M31.6357 17.1975C31.8094 17.2208 31.8442 16.9741 32.0222 16.9927C32.5652 17.9608 31.3751 22.741 30.5759 22.9784C28.3086 23.6533 30.2458 17.258 31.1536 17.6117C31.2795 17.6629 32.1525 20.4882 31.6357 17.1975Z" fill="#331005"/>
<path d="M29.5166 17.6113C28.3873 15.9869 21.0296 14.4789 20.2695 12.8638C22.9016 14.4277 28.5133 15.959 29.8033 16.578C30.4504 16.8899 30.2984 17.0761 29.5123 17.6113H29.5166Z" fill="#CEE2EF"/>
<path d="M65.1546 16.3736C63.2435 16.5504 61.2976 16.6389 59.3779 16.7878L49.071 16.9926C43.7547 14.7445 37.9215 13.4599 33.083 10.1831L60.0511 14.3116C61.8145 14.8236 63.6127 15.2798 65.1546 16.3736Z" fill="#FFFEFF"/>
<path d="M57.7358 15.5452C66.6918 15.3404 59.4731 15.8943 55.2297 16.1642L46.6602 15.8524C50.3477 15.8245 54.0526 15.629 57.7358 15.5405V15.5452Z" fill="#734749"/>
<path d="M67.8519 43.8256L37.7088 18.8497L37.4178 19.4687C37.3874 19.4408 37.2788 19.236 36.8401 18.8497L34.1429 16.2711C34.6771 17.3277 35.9671 18.0817 36.8401 18.8497L36.5491 19.0545C33.4697 16.569 30.5422 16.7133 29.0351 16.1641C26.1424 15.1121 23.3974 13.5622 20.5611 12.4498C20.0964 12.2683 20.1051 12.6639 20.079 12.6546C19.9444 12.5987 19.1061 12.5941 17.2862 11.8307C13.5596 10.2622 3.43951 5.13295 0.625 2.33561C0.681464 2.25649 0.807421 1.91671 0.916006 1.92137C1.24176 1.94464 2.63599 3.68076 6.31049 5.84509C7.80896 6.72478 18.4676 12.2357 19.2147 12.245C20.774 11.3979 19.0974 11.8587 19.0236 11.8307C17.1603 11.1977 7.8828 6.43155 5.92393 5.22604C1.45024 2.47059 -0.100347 1.44195 3.03558 0.683273C11.6051 -1.37866 21.5949 6.99474 30.0037 9.14511C33.0136 10.4996 35.6848 12.5848 38.8642 13.4784C49.2666 23.6159 59.947 33.637 71.3223 42.4805C69.8499 43.2531 69.2983 44.2911 67.8563 43.821L67.8519 43.8256Z" fill="#FFFEFF"/>
<path d="M67.853 43.8255C67.7184 43.7836 67.562 43.8767 66.7933 43.4113C57.316 35.0053 46.9918 27.7303 37.4189 19.4687L37.71 18.8496L67.853 43.8255Z" fill="#7499A0"/>
<path d="M8.04467 1.09729C9.17829 0.929732 11.6062 2.57742 10.8375 3.67587C10.3684 4.34612 5.65146 1.44638 8.04467 1.09729Z" fill="#331005"/>
<path d="M36.8418 18.8493C35.9688 18.0813 34.6831 17.3273 34.1445 16.2708L36.8418 18.8493Z" fill="#3E2524"/>
<path d="M11.605 4.81149C10.7103 6.10078 13.2251 4.33208 11.2185 6.46383L11.0273 5.43053C11.2054 5.03025 11.1794 4.78821 11.4139 4.60669C11.3922 4.75563 11.4704 4.84407 11.605 4.81149Z" fill="#AB9C9B"/>
<path d="M11.2205 6.46396C10.2997 7.44605 10.3518 6.94337 11.0294 5.43066L11.2205 6.46396Z" fill="#3E2524"/>
<path d="M11.6072 4.81143C11.4682 4.84401 11.39 4.75557 11.4161 4.60663C12.0155 4.13187 12.68 4.56474 11.6072 4.81143Z" fill="#665458"/>
</svg>
