<svg width="252" height="207" viewBox="0 0 252 207" fill="none" xmlns="http://www.w3.org/2000/svg">
<mask id="mask0_1282_835" style="mask-type:luminance" maskUnits="userSpaceOnUse" x="0" y="89" width="252" height="118">
<path d="M0 89.1255H252V206.998H0V89.1255Z" fill="white"/>
</mask>
<g mask="url(#mask0_1282_835)">
<path d="M250.402 112.127C247.256 100.834 234.088 92.6693 213.323 89.1256C213.07 89.0773 212.814 89.2556 212.777 89.5193C212.74 89.7756 212.903 90.0282 213.171 90.0654C233.553 93.5348 246.454 101.458 249.488 112.379C256.803 138.627 207.227 175.453 138.971 194.45C70.7148 213.447 9.25262 207.555 1.93853 181.297C-0.955165 170.907 4.98823 158.552 18.7658 145.866C21.1914 148.277 22.6624 151.658 24.2894 157.092C27.5286 146.26 30.1548 143.63 41.0015 140.38C30.1697 137.141 27.5397 134.515 24.2894 123.668C21.0503 134.5 18.424 137.13 7.57732 140.38C12.4806 141.84 15.6938 143.199 18.0563 145.216C4.04843 158.158 -1.95811 170.818 1.02473 181.56C5.56028 197.83 30.2328 206.5 64.3293 206.489C86.3347 206.489 112.267 202.882 139.227 195.379C207.978 176.241 257.857 138.894 250.402 112.138V112.127Z" fill="#01B0F2"/>
</g>
<mask id="mask1_1282_835" style="mask-type:luminance" maskUnits="userSpaceOnUse" x="31" y="0" width="194" height="193">
<path d="M31.6895 0H224.255V192.566H31.6895V0Z" fill="white"/>
</mask>
<g mask="url(#mask1_1282_835)">
<path d="M186.931 44.0443C185.839 44.4789 184.813 45.0436 183.859 45.7345C176.89 52.1905 169.996 58.7505 163.053 65.2585L93.103 130.929L31.8154 108.33L223.98 0.100342C213.962 56.4697 204.048 111.992 194.055 168.131C179.375 163.005 165.051 157.37 150.267 152.144L115.807 192.421C115.807 179.149 115.807 166.798 115.807 154.476C115.807 149.35 115.985 144.224 116.063 139.306C118.983 135.335 121.854 131.364 124.774 127.419C145.271 100.087 165.709 72.6543 186.087 45.1216C186.344 44.7612 186.548 44.3266 186.804 43.9403L186.983 43.762C187.009 43.5057 186.983 43.814 186.931 44.0443Z" fill="#01B0F2"/>
</g>
</svg>
