<svg width="40" height="17" viewBox="0 0 40 17" fill="none" xmlns="http://www.w3.org/2000/svg">
<path d="M23.8412 0.79622C29.334 -0.0563036 31.7712 6.08476 32.228 6.35448C32.9052 6.75425 35.559 5.82948 36.4213 9.98614C37.7994 9.79348 39.9493 10.4004 40.0005 12.2306C38.0199 11.6623 40.3745 14.8942 38.3428 15.9682C36.6379 16.8689 5.733 16.3488 1.2207 16.5029C10.891 15.1976 26.6132 16.6377 35.374 15.7563C40.2564 15.265 38.394 14.2777 38.6066 12.6593C38.6421 12.3896 40.8037 10.2221 36.2481 10.6315C35.9331 10.5111 35.4291 6.25815 32.2319 7.21182C28.8536 0.593926 22.9396 -1.53979 19.1321 5.93063C18.3958 5.61755 21.6008 1.15264 23.8491 0.801038L23.8412 0.79622Z" fill="#FFFEFF"/>
<path d="M15.1079 1.65333C16.2458 1.60035 18.8288 2.77558 18.7776 4.43246C14.3126 -1.45814 9.98533 5.58361 8.99703 11.2719C5.80771 11.1756 2.39396 11.0022 0 13.9451C1.00011 10.5302 6.20539 10.8095 8.81985 10.8481C9.34746 7.35127 11.8005 1.8171 15.1079 1.65815V1.65333Z" fill="#FFFEFF"/>
<path d="M14.9346 4.21569C18.5649 2.73702 18.9783 14.0607 17.2931 5.81959C16.4741 4.32647 13.8163 4.67326 14.9346 4.21569Z" fill="#FFFEFF"/>
<path d="M11.6155 6.56638C12.7298 6.32074 14.1276 7.27922 14.671 8.38221C16.2853 11.643 13.7496 7.5634 13.537 7.4189C12.4306 6.67716 11.4856 7.26477 11.6155 6.56638Z" fill="#FFFEFF"/>
</svg>
