<svg width="88" height="32" viewBox="0 0 88 32" fill="none" xmlns="http://www.w3.org/2000/svg">
<path d="M35.2865 0.162414C23.3569 -1.54421 18.0634 10.7492 17.0714 11.2892C15.6005 12.0895 9.83668 10.2382 7.96386 18.5592C4.97076 18.1735 0.301537 19.3884 0.190361 23.0523C4.49187 21.9146 -0.62204 28.3843 3.79063 30.5345C7.49352 32.3375 74.6158 31.2962 84.416 31.6047C63.4131 28.9918 29.2661 31.8747 10.2386 30.1102C-0.365494 29.1267 3.67946 27.1501 3.21767 23.9105C3.1407 23.3705 -1.55418 19.0316 8.34013 19.8512C9.02427 19.6102 10.1189 11.0964 17.0629 13.0055C24.4002 -0.242547 37.2449 -4.51392 45.5144 10.4407C47.1135 9.81398 40.1524 0.875918 35.2694 0.172058L35.2865 0.162414Z" fill="#FFFEFF"/>
<path d="M54.2536 1.87869C51.7821 1.77263 46.1722 4.12526 46.2834 7.44208C55.981 -4.34999 65.3793 9.7465 67.5258 21.1336C74.4527 20.9408 81.867 20.5937 87.0664 26.4849C84.8943 19.6488 73.5889 20.208 67.9106 20.2851C66.7647 13.2851 61.437 2.20652 54.2536 1.88833V1.87869Z" fill="#FFFEFF"/>
<path d="M54.6303 7.00756C46.7456 4.0475 45.8477 26.7157 49.5078 10.2183C51.2865 7.22933 57.0589 7.92355 54.6303 7.00756Z" fill="#FFFEFF"/>
<path d="M61.8392 11.7134C59.4191 11.2217 56.3832 13.1404 55.2031 15.3484C51.6969 21.876 57.2042 13.7093 57.666 13.42C60.069 11.9352 62.1214 13.1115 61.8392 11.7134Z" fill="#FFFEFF"/>
</svg>
