<svg width="78" height="65" viewBox="0 0 78 65" fill="none" xmlns="http://www.w3.org/2000/svg">
<mask id="mask0_1062_3488" style="mask-type:luminance" maskUnits="userSpaceOnUse" x="0" y="27" width="78" height="38">
<path d="M0 27.5864H78V64.0707H0V27.5864Z" fill="white"/>
</mask>
<g mask="url(#mask0_1062_3488)">
<path d="M77.5054 34.7058C76.5315 31.2105 72.4556 28.6833 66.0284 27.5864C65.9502 27.5715 65.8709 27.6267 65.8594 27.7083C65.8479 27.7876 65.8985 27.8658 65.9813 27.8773C72.2901 28.9512 76.2832 31.4036 77.2225 34.784C79.4864 42.9082 64.1417 54.3069 43.0148 60.1868C21.8878 66.0667 2.86385 64.2432 0.599962 56.1155C-0.295704 52.8996 1.54392 49.0755 5.80839 45.1491C6.55919 45.8953 7.0145 46.9416 7.51809 48.6237C8.52069 45.271 9.33357 44.4569 12.6909 43.4509C9.33817 42.4483 8.52414 41.6354 7.51809 38.2781C6.5155 41.6308 5.70261 42.4448 2.3453 43.4509C3.86299 43.9027 4.85754 44.3235 5.58879 44.9479C1.25303 48.9536 -0.606141 52.872 0.31712 56.1972C1.72098 61.2331 9.35771 63.9167 19.9114 63.9132C26.7226 63.9132 34.7491 62.7968 43.0941 60.4743C64.3739 54.5507 79.813 42.991 77.5054 34.7092V34.7058Z" fill="#FCFFFF"/>
</g>
<mask id="mask1_1062_3488" style="mask-type:luminance" maskUnits="userSpaceOnUse" x="9" y="0" width="61" height="60">
<path d="M9.80859 0H69.4124V59.6038H9.80859V0Z" fill="white"/>
</mask>
<g mask="url(#mask1_1062_3488)">
<path d="M57.8595 13.6327C57.5215 13.7672 57.2041 13.942 56.9086 14.1559C54.7517 16.1541 52.6177 18.1846 50.4688 20.199L28.8176 40.5257L9.84766 33.5305L69.3273 0.0310059C66.2263 17.4787 63.1576 34.6642 60.0648 52.0406C55.5209 50.4539 51.0874 48.7097 46.5113 47.092L35.845 59.5589C35.845 55.4508 35.845 51.6278 35.845 47.814C35.845 46.2274 35.9002 44.6407 35.9243 43.1184C36.828 41.8893 37.7168 40.6602 38.6205 39.4392C44.9649 30.9792 51.2909 22.4882 57.5985 13.9661C57.6778 13.8546 57.7411 13.7201 57.8204 13.6005L57.8756 13.5453C57.8836 13.466 57.8756 13.5614 57.8595 13.6327Z" fill="#FCFFFF"/>
</g>
</svg>
