<svg width="422" height="231" viewBox="0 0 422 231" fill="none" xmlns="http://www.w3.org/2000/svg">
<path d="M0.00442418 138.893C0.0464838 92.6059 -0.0166056 46.2869 0.00442418 0H417.993C418.014 49.6099 421.968 76.7175 422 126.327C375.156 132.749 341.213 171.578 317.691 213.559C295.47 205.771 320.69 176.407 296.096 190.8C287.684 198.119 284.677 207.896 274.866 213.559C275.245 210.813 274.782 208.9 272.069 207.874C281.491 191.281 288.386 208.387 302.76 196.965C302.823 196.784 300.668 152.644 317.691 213.559C324.21 198.162 322.612 201.399 332.612 187.969C335.241 184.443 341.171 178.983 339.846 178.256C323.453 196.559 326.24 192.787 316.061 215.215C283.602 221.177 248.93 203.525 213.999 205.374C190.225 206.634 153.291 221.519 132.261 209.787C123.618 204.968 107.372 190.479 100.075 187.979C90.8532 184.827 133.925 195.211 138.499 204.133C148.888 224.413 185.669 210.287 205.678 220L164.226 213.559C162.406 212.565 164.226 184.59 152.796 208.345C132.26 196.645 100.632 213.409 85.8481 194.85L84.9123 193.428C85.3855 175.232 83.7136 199.359 78.6138 182.028C77.4362 181.376 81.4108 195.672 81.6421 196.965C82.5569 202.094 83.5664 173.448 83.9764 178.256C84.9228 189.561 85.5221 195.704 81.6421 190.105C79.1501 186.505 80.107 205.47 78.8452 197.905C75.0388 175.168 64.4997 151.004 41.9998 138.893C19.4999 126.781 13.0955 125.537 0.940251 126.327C0.919221 130.516 0.971795 134.704 0.940251 138.893H0.00442418Z" fill="url(#paint0_linear_1418_1010)"/>
<path d="M29.2738 112.232C30.4786 111.919 41.866 113.974 44.043 114.596C82.6591 125.629 106.249 184.372 99.2557 230.427C104.09 174.898 78.0243 115.739 28.7271 113.235C28.2991 113.036 29.0296 112.287 29.2651 112.219L29.2738 112.232Z" fill="#FFFEFF"/>
<path d="M391.333 111.001C394.67 109.984 396.616 110.166 394.94 111.269C394.237 111.735 385.092 114.268 379.616 116.921C342.501 134.898 315.93 171.913 301.93 216.836C302.171 215.301 302.204 212.418 302.535 211.266C303.115 209.249 313.457 185.153 315.177 181.788C331.341 150.101 361.497 120.065 391.341 110.987L391.333 111.001Z" fill="#FFFEFF"/>
<defs>
<linearGradient id="paint0_linear_1418_1010" x1="209.001" y1="16.8235" x2="209.001" y2="302.206" gradientUnits="userSpaceOnUse">
<stop stop-color="#01B0F2"/>
<stop offset="1" stop-color="#E5E9ED"/>
</linearGradient>
</defs>
</svg>
