<svg width="393" height="220" viewBox="0 0 393 220" fill="none" xmlns="http://www.w3.org/2000/svg">
<path d="M-17.9956 138.893C-17.9535 92.6059 -18.0166 46.2869 -17.9956 0H399.993C400.014 49.6099 403.968 76.7175 404 126.327C357.156 132.749 323.213 171.578 299.691 213.559C277.47 205.771 302.69 176.407 278.096 190.8C269.684 198.119 266.677 207.896 256.866 213.559C257.245 210.813 256.782 208.9 254.069 207.874C263.491 191.281 270.386 208.387 284.76 196.965C284.823 196.784 282.668 152.644 299.691 213.559C306.21 198.162 304.612 201.399 314.612 187.969C317.241 184.443 323.171 178.983 321.846 178.256C305.453 196.559 308.24 192.787 298.061 215.215C265.602 221.177 230.93 203.525 195.999 205.374C172.225 206.634 135.291 221.519 114.261 209.787C105.618 204.968 89.3721 190.479 82.0748 187.979C72.8532 184.827 115.925 195.211 120.499 204.133C130.888 224.413 167.669 210.287 187.678 220L146.226 213.559C144.406 212.565 146.226 184.59 134.796 208.345C114.26 196.645 82.6321 213.409 67.8481 194.85L66.9123 193.428C67.3855 175.232 65.7136 199.359 60.6138 182.028C59.4362 181.376 63.4108 195.672 63.6421 196.965C64.5569 202.094 65.5664 173.448 65.9764 178.256C66.9228 189.561 67.5221 195.704 63.6421 190.105C61.1501 186.505 62.107 205.47 60.8452 197.905C57.0388 175.168 46.4997 151.004 23.9998 138.893C1.49991 126.781 -4.90452 125.537 -17.0597 126.327C-17.0808 130.516 -17.0282 134.704 -17.0597 138.893H-17.9956Z" fill="url(#paint0_linear_1120_1082)"/>
<defs>
<linearGradient id="paint0_linear_1120_1082" x1="191.001" y1="16.8235" x2="191.001" y2="302.206" gradientUnits="userSpaceOnUse">
<stop stop-color="#01B0F2"/>
<stop offset="1" stop-color="#E5E9ED"/>
</linearGradient>
</defs>
</svg>
