<svg width="15" height="13" viewBox="0 0 15 13" fill="none" xmlns="http://www.w3.org/2000/svg">
<g filter="url(#filter0_d_1067_6165)">
<mask id="mask0_1067_6165" style="mask-type:luminance" maskUnits="userSpaceOnUse" x="1" y="4" width="13" height="7">
<path d="M1 4.59766H14V10.6784H1V4.59766Z" fill="white"/>
</mask>
<g mask="url(#mask0_1067_6165)">
<path d="M13.9169 5.78389C13.7546 5.20134 13.0753 4.78014 12.0041 4.59733C11.9911 4.59484 11.9778 4.60404 11.9759 4.61764C11.974 4.63087 11.9824 4.6439 11.9962 4.64581C13.0477 4.82479 13.7132 5.23353 13.8698 5.79692C14.2471 7.15096 11.6896 9.05075 8.16848 10.0307C4.64732 11.0107 1.47666 10.7068 1.09934 9.35218C0.950065 8.8162 1.25667 8.17885 1.96741 7.52444C2.09255 7.64881 2.16843 7.82319 2.25236 8.10354C2.41946 7.54475 2.55494 7.40908 3.1145 7.24141C2.55571 7.07431 2.42004 6.93883 2.25236 6.37927C2.08527 6.93806 1.94978 7.07373 1.39023 7.24141C1.64318 7.31672 1.80894 7.38685 1.93081 7.4909C1.20819 8.15853 0.898325 8.8116 1.0522 9.36579C1.28618 10.2051 2.55897 10.6524 4.31791 10.6518C5.45312 10.6518 6.79087 10.4657 8.1817 10.0786C11.7283 9.09138 14.3015 7.16475 13.9169 5.78446V5.78389Z" fill="#01B0F2"/>
</g>
<mask id="mask1_1067_6165" style="mask-type:luminance" maskUnits="userSpaceOnUse" x="2" y="-1" width="11" height="11">
<path d="M2.63574 -0.000244141H12.5697V9.93372H2.63574V-0.000244141Z" fill="white"/>
</mask>
<g mask="url(#mask1_1067_6165)">
<path d="M10.6436 2.27183C10.5872 2.29425 10.5343 2.32338 10.4851 2.35902C10.1256 2.69207 9.76995 3.03049 9.4118 3.36622L5.80326 6.754L2.6416 5.58814L12.5549 0.00488281C12.038 2.91283 11.5266 5.77708 11.0111 8.67315C10.2538 8.4087 9.51489 8.118 8.75221 7.84838L6.97449 9.9262C6.97449 9.24151 6.97449 8.60435 6.97449 7.96872C6.97449 7.70428 6.98369 7.43983 6.98771 7.18612C7.13833 6.98127 7.28646 6.77642 7.43708 6.57291C8.49448 5.16292 9.54881 3.74775 10.6001 2.32741C10.6133 2.30882 10.6238 2.2864 10.6371 2.26647L10.6463 2.25727C10.6476 2.24405 10.6463 2.25995 10.6436 2.27183Z" fill="#01B0F2"/>
</g>
</g>
<defs>
<filter id="filter0_d_1067_6165" x="0.0136719" y="0.00488281" width="14.9414" height="12.647" filterUnits="userSpaceOnUse" color-interpolation-filters="sRGB">
<feFlood flood-opacity="0" result="BackgroundImageFix"/>
<feColorMatrix in="SourceAlpha" type="matrix" values="0 0 0 0 0 0 0 0 0 0 0 0 0 0 0 0 0 0 127 0" result="hardAlpha"/>
<feOffset dy="1"/>
<feGaussianBlur stdDeviation="0.5"/>
<feComposite in2="hardAlpha" operator="out"/>
<feColorMatrix type="matrix" values="0 0 0 0 0 0 0 0 0 0 0 0 0 0 0 0 0 0 0.25 0"/>
<feBlend mode="normal" in2="BackgroundImageFix" result="effect1_dropShadow_1067_6165"/>
<feBlend mode="normal" in="SourceGraphic" in2="effect1_dropShadow_1067_6165" result="shape"/>
</filter>
</defs>
</svg>
