<svg width="50" height="50" viewBox="0 0 50 50" fill="none" xmlns="http://www.w3.org/2000/svg">
<g clip-path="url(#clip0_1300_874)">
<path d="M45.4545 0H4.54545C2.03507 0 0 2.03507 0 4.54545V45.4545C0 47.9649 2.03507 50 4.54545 50H45.4545C47.9649 50 50 47.9649 50 45.4545V4.54545C50 2.03507 47.9649 0 45.4545 0Z" fill="#F2F2F2"/>
<mask id="mask0_1300_874" style="mask-type:luminance" maskUnits="userSpaceOnUse" x="13" y="13" width="24" height="24">
<path d="M36.3635 13.6365H13.6362V36.3637H36.3635V13.6365Z" fill="white"/>
</mask>
<g mask="url(#mask0_1300_874)">
<path d="M35.9091 25.2585C35.9091 24.4527 35.8368 23.6779 35.7025 22.9341H25V27.3298H31.1157C30.8523 28.7502 30.0517 29.9537 28.8482 30.7595V33.6108H32.5207C34.6694 31.6325 35.9091 28.7192 35.9091 25.2585Z" fill="#4285F4"/>
<path d="M24.9997 36.3637C28.0679 36.3637 30.6402 35.3461 32.5203 33.6107L28.8478 30.7594C27.8303 31.4412 26.5286 31.8441 24.9997 31.8441C22.04 31.8441 19.5348 29.8451 18.6412 27.1592H14.8447V30.1034C16.7146 33.8172 20.5576 36.3637 24.9997 36.3637Z" fill="#34A853"/>
<path d="M18.6413 27.1591C18.4141 26.4773 18.285 25.749 18.285 25C18.285 24.251 18.4141 23.5228 18.6413 22.8409V19.8967H14.8449C14.0753 21.4308 13.6362 23.1664 13.6362 25C13.6362 26.8337 14.0753 28.5692 14.8449 30.1033L18.6413 27.1591Z" fill="#FBBC04"/>
<path d="M24.9997 18.1561C26.668 18.1561 28.166 18.7294 29.3437 19.8555L32.603 16.5961C30.6351 14.7625 28.0627 13.6365 24.9997 13.6365C20.5576 13.6365 16.7146 16.183 14.8447 19.8968L18.6412 22.841C19.5348 20.1551 22.04 18.1561 24.9997 18.1561Z" fill="#E94235"/>
</g>
</g>
<defs>
<clipPath id="clip0_1300_874">
<rect width="50" height="50" rx="14" fill="white"/>
</clipPath>
</defs>
</svg>
