<svg width="50" height="50" viewBox="0 0 50 50" fill="none" xmlns="http://www.w3.org/2000/svg">
<rect x="0.5" y="0.5" width="49" height="49" rx="13.5" fill="black"/>
<rect x="0.5" y="0.5" width="49" height="49" rx="13.5" stroke="#4D4D4D"/>
<path d="M28.6133 19.7788C28.7923 19.7788 29.0975 19.8073 29.5288 19.8643C29.9601 19.9212 30.4321 20.084 30.9448 20.3525C31.4657 20.613 31.9377 21.0483 32.3608 21.6587C32.3364 21.6831 32.2184 21.7726 32.0068 21.9272C31.7952 22.0737 31.5592 22.2935 31.2988 22.5864C31.0384 22.8713 30.8105 23.2375 30.6152 23.6851C30.4199 24.1245 30.3223 24.6494 30.3223 25.2598C30.3223 25.9596 30.4443 26.5537 30.6885 27.042C30.9408 27.5303 31.2297 27.925 31.5552 28.2261C31.8888 28.519 32.1818 28.7347 32.4341 28.873C32.6945 29.0114 32.8328 29.0846 32.8491 29.0928C32.841 29.1253 32.7352 29.4142 32.5317 29.9595C32.3364 30.5047 32.0109 31.111 31.5552 31.7783C31.1564 32.3561 30.7251 32.8892 30.2612 33.3774C29.8055 33.8657 29.2562 34.1099 28.6133 34.1099C28.182 34.1099 27.828 34.0488 27.5513 33.9268C27.2746 33.7965 26.9897 33.6704 26.6968 33.5483C26.4038 33.4181 26.0091 33.353 25.5127 33.353C25.0326 33.353 24.6297 33.4181 24.3042 33.5483C23.9868 33.6785 23.6816 33.8088 23.3887 33.939C23.1038 34.0692 22.7661 34.1343 22.3755 34.1343C21.7814 34.1343 21.2606 33.8983 20.813 33.4263C20.3654 32.9543 19.9056 32.3887 19.4336 31.7295C18.8883 30.9482 18.4204 29.9961 18.0298 28.873C17.6473 27.7419 17.4561 26.6025 17.4561 25.4551C17.4561 24.2262 17.688 23.1968 18.1519 22.3667C18.6157 21.5285 19.2098 20.8978 19.9341 20.4746C20.6665 20.0433 21.4233 19.8276 22.2046 19.8276C22.6196 19.8276 23.0103 19.8968 23.3765 20.0352C23.7427 20.1654 24.0845 20.2996 24.4019 20.438C24.7274 20.5763 25.0203 20.6455 25.2808 20.6455C25.533 20.6455 25.826 20.5723 26.1597 20.4258C26.4933 20.2793 26.8677 20.1369 27.2827 19.9985C27.6978 19.8521 28.1413 19.7788 28.6133 19.7788ZM27.9419 18.2285C27.6245 18.611 27.2257 18.9325 26.7456 19.1929C26.2655 19.4451 25.8097 19.5713 25.3784 19.5713C25.2889 19.5713 25.2035 19.5632 25.1221 19.5469C25.1139 19.5225 25.1058 19.4777 25.0977 19.4126C25.0895 19.3475 25.0854 19.2783 25.0854 19.2051C25.0854 18.7168 25.1912 18.2448 25.4028 17.7891C25.6144 17.3252 25.8545 16.9427 26.123 16.6416C26.4648 16.2347 26.8962 15.897 27.417 15.6284C27.9378 15.3599 28.4342 15.2174 28.9062 15.2012C28.9307 15.307 28.9429 15.4331 28.9429 15.5796C28.9429 16.0679 28.8493 16.5439 28.6621 17.0078C28.4749 17.4635 28.2349 17.8704 27.9419 18.2285Z" fill="white"/>
</svg>
